<svg xmlns="http://www.w3.org/2000/svg" width="834" height="780" viewBox="0 0 834 780">
  <defs>
    <style>
      .a, .c {
        fill: none;
      }

      .a, .b {
        stroke: #000;
        stroke-linecap: round;
        stroke-linejoin: round;
        stroke-width: 0.72px;
      }

      .b {
        fill: #5b5b5b;
      }

      .c {
        stroke: #5b5b5b;
        stroke-miterlimit: 10;
      }
    </style>
  </defs>
  <g>
    <polygon class="a" points="833 737 826 642 812 497 803 439 784 352 754 196 721 0 505 42 539 234 533 235 520 237 525 269 51 211 0 593 127 604 143 494 541 543 561 549 574 564 580 582 614 776 833 737"/>
    <polygon class="a" points="525 269 51 211 18 457 0 593 127 604 143 494 541 543 561 549 574 564 580 582 569 514 525 269"/>
    <polygon class="a" points="629 774 833 737 826 642 812 497 803 439 784 352 754 196 721 0 505 42 539 234 533 235 629 774"/>
    <polygon class="b" points="629 774 796 744 794 732 790 733 776 663 738 670 737 660 613 684 629 774"/>
    <polygon class="b" points="95 229 118 232 119 222 96 219 95 229"/>
    <polygon class="b" points="76 249 66 247 68 238 77 240 76 249"/>
    <polygon class="b" points="567 391 577 454 799 421 784 352 567 391"/>
    <polygon class="b" points="127 238 249 253 243 298 122 283 127 238"/>
    <polygon class="a" points="614 776 629 774 533 235 520 237 525 269 614 776"/>
    <polygon class="b" points="569 514 564 522 558 525 369 499 381 374 547 393 569 514"/>
    <polygon class="a" points="728 506 740 582 802 573 792 496 728 506"/>
    <polygon class="a" points="659 260 650 214 738 198 746 245 659 260"/>
    <polygon class="a" points="369 499 381 374 547 393 525 269 62 213 33 427 38 445 50 457 65 463 369 499"/>
    <polygon class="a" points="615 780 419 757 460 533 541 543 561 549 574 564 580 582 615 780"/>
    <polygon class="a" points="16 595 127 604 143 494 56 484 39 489 28 498 16 595"/>
  </g>
  <g>
    <polygon class="a" points="43 207 31 298 16 294 27 205 43 207"/>
    <polygon class="a" points="787 267 794 323 785 323 777 269 787 267"/>
  </g>
  <g>
    <line class="c" x1="617" y1="674" x2="578" y2="455"/>
    <line class="c" x1="578" y1="455" x2="799" y2="421"/>
    <line class="c" x1="567" y1="391" x2="539" y2="234"/>
    <line class="c" x1="72" y1="215" x2="44" y2="431"/>
    <line class="c" x1="361" y1="373" x2="75" y2="339"/>
    <line class="c" x1="617" y1="674" x2="822" y2="638"/>
    <line class="c" x1="592" y1="530" x2="796" y2="494"/>
  </g>
</svg>
