<svg xmlns="http://www.w3.org/2000/svg" width="1017" height="551" viewBox="0 0 1017 551">
  <defs>
    <style>
      .a, .e {
        fill: none;
      }

      .a, .b {
        stroke: #000;
        stroke-miterlimit: 10;
      }

      .b {
        fill: #fff;
      }

      .c, .d {
        isolation: isolate;
        font-size: 23.07px;
        font-family: ArialMT, Arial;
      }

      .c {
        letter-spacing: -0.06em;
      }
    </style>
  </defs>
  <polygon class="a" points="583 550 528 551 169 551 138 513 123 452 60 453 60 435 11 433 1 1 327 3 568 56 583 550"/>
  <polygon class="a" points="581 497 583 550 966 539 966 530 992 528 1017 231 1015 183 823 187 825 29 496 64 501 184 572 181 573 226 503 229 515 500 581 497"/>
  <polygon class="a" points="124 102 205 101 205 482 137 482 137 452 125 453 124 102"/>
  <polygon class="a" points="263 101 388 101 388 482 263 482 263 101"/>
  <polygon class="a" points="496 53 499 168 443 170 439 54 496 53"/>
  <polygon class="a" points="457 273 497 270 509 487 468 490 457 273"/>
  <polygon class="a" points="678 236 838 229 850 491 691 499 678 236"/>
  <polygon class="a" points="898 227 911 517 991 514 988 426 1000 425 995 337 1007 336 1004 280 1001 221 898 227"/>
  <polygon class="a" points="623 226 637 492 523 497 509 231 623 226"/>
  <polygon class="a" points="511 176 810 162 805 56 505 67 511 176"/>
  <polygon class="b" points="6 216 10 366 57 364 51 214 6 216"/>
  <polygon class="b" points="190 18 298 18 298 53 190 54 190 18"/>
  <polygon class="a" points="124 185 6 188 11 433 60 435 60 453 125 452 124 185"/>
  <text class="c" transform="translate(205 93)">A</text>
  <text class="d" transform="translate(251 93)">B</text>
  <text class="d" transform="translate(420 56)">C</text>
  <text class="d" transform="translate(425 181)">C</text>
  <text class="d" transform="translate(426 273)">SC</text>
  <text class="d" transform="translate(438 497)">SC</text>
  <text class="d" transform="translate(665 233)">D</text>
  <text class="d" transform="translate(884 224)">F</text>
  <text class="d" transform="translate(675 517)">D</text>
  <text class="d" transform="translate(894 527)">F</text>
  <text class="c" transform="translate(206 508)">A</text>
  <text class="d" transform="translate(252 508)">B</text>
  <polygon class="a" points="581 497 463 502 465 551 583 550 581 497"/>
  <polygon class="a" points="572 181 445 187 448 231 573 226 572 181"/>
  <polygon class="e" points="620 170 620 178 628 177 627 170 620 170"/>
</svg>
