<svg xmlns="http://www.w3.org/2000/svg" width="1017" height="551" viewBox="0 0 1017 551">
  <defs>
    <style>
      .a, .c {
        fill: none;
      }

      .a, .b {
        stroke: #000;
        stroke-miterlimit: 10;
      }

      .b {
        fill: #fff;
      }
    </style>
  </defs>
  <polygon class="a" points="583 550 528 551 169 551 138 513 123 452 60 453 60 435 11 433 1 1 327 3 568 56 583 550"/>
  <polygon class="a" points="581 497 583 550 966 539 966 530 992 528 1017 231 1015 183 823 187 825 29 496 64 501 184 572 181 573 226 503 229 515 500 581 497"/>
  <polygon class="a" points="623 226 637 492 523 497 509 231 623 226"/>
  <polygon class="a" points="511 175 810 161 805 55 505 66 511 175"/>
  <polygon class="b" points="6 216 10 366 57 364 51 214 6 216"/>
  <polygon class="b" points="190 18 298 18 298 53 190 54 190 18"/>
  <polygon class="a" points="124 185 6 188 11 433 60 435 60 453 125 452 124 185"/>
  <polygon class="a" points="581 497 463 502 465 551 583 550 581 497"/>
  <polygon class="a" points="572 181 445 187 448 231 573 226 572 181"/>
  <polygon class="c" points="620 170 620 178 628 177 627 170 620 170"/>
</svg>
