<svg xmlns="http://www.w3.org/2000/svg" width="822" height="467" viewBox="0 0 822 467">
  <defs>
    <style>
      .a, .b {
        fill: none;
        stroke: #000;
        stroke-linecap: round;
        stroke-linejoin: round;
        stroke-width: 1.08px;
      }

      .a {
        opacity: 0.45;
      }
    </style>
  </defs>
  <polygon class="a" points="637 128 695 173 747 220 782 255 822 298 390 424 369 372 386 341 417 345 489 186 431 160 360 312 377 336 322 433 211 466 105 415 13 421 46 221 240 257 308 273 334 284 420 8 473 29 502 45 590 97 637 128"/>
  <g>
    <polygon class="b" points="431 160 489 186 417 345 386 341 377 336 360 312 431 160"/>
    <polygon class="b" points="413 412 391 419 380 390 402 382 413 412"/>
    <polygon class="b" points="654 180 672 212 669 213 670 215 643 231 642 230 639 231 616 191 619 189 610 174 637 159 651 182 654 180"/>
    <polygon class="b" points="635 127 610 174 586 187 621 246 671 218 678 229 733 213 754 231 778 311 822 298 782 255 747 220 695 173 635 127"/>
    <polygon class="b" points="420 8 415 23 493 57 459 148 476 157 493 114 505 120 528 69 591 106 595 100 502 45 473 29 420 8"/>
  </g>
  <g>
    <polygon class="b" points="112 229 47 218 49 208 112 219 112 229"/>
    <polygon class="b" points="330 435 361 377 370 382 340 438 330 435"/>
    <polygon class="b" points="161 458 102 429 106 420 164 448 161 458"/>
    <polygon class="b" points="78 434 12 439 8 428 75 424 78 434"/>
    <polygon class="b" points="333 281 280 257 284 247 320 185 333 281"/>
    <polygon class="b" points="461 25 434 10 438 1 468 13 461 25"/>
    <polygon class="b" points="597 96 540 62 545 54 600 86 597 96"/>
    <polygon class="b" points="783 324 720 343 717 333 778 315 783 324"/>
  </g>
  <g>
    <polygon class="b" points="24 228 4 228 1 224 20 224 24 228"/>
    <polygon class="b" points="99 164 80 164 75 161 95 159 99 164"/>
    <polygon class="b" points="84 185 65 185 60 182 81 180 84 185"/>
  </g>
  <g>
    <line class="b" x1="202" y1="250" x2="195" y2="282"/>
    <line class="b" x1="195" y1="282" x2="275" y2="309"/>
    <line class="b" x1="387" y1="116" x2="459" y2="148"/>
    <line class="b" x1="476" y1="157" x2="468" y2="177"/>
    <line class="b" x1="275" y1="309" x2="289" y2="269"/>
  </g>
</svg>
