<svg xmlns="http://www.w3.org/2000/svg" width="1017" height="591" viewBox="0 0 1017 591">
  <defs>
    <style>
      .a, .c {
        fill: none;
      }

      .a, .b {
        stroke: #000;
        stroke-miterlimit: 10;
      }

      .b {
        fill: #fff;
      }
    </style>
  </defs>
  <g>
    <polygon class="a" points="583 572 528 573 169 573 138 535 123 474 60 475 60 457 11 455 1 23 327 25 568 78 572 203 445 209 463 524 581 519 583 572"/>
    <polygon class="a" points="581 519 583 572 966 561 966 552 992 550 1017 253 1015 205 823 209 825 51 496 86 501 206 572 203 573 248 448 253 463 524 581 519"/>
    <polygon class="a" points="623 248 637 514 523 519 509 253 623 248"/>
    <polygon class="a" points="511 197 810 183 805 77 505 88 511 197"/>
    <polygon class="b" points="6 238 10 388 57 386 51 236 6 238"/>
    <polygon class="b" points="190 40 298 40 298 75 190 76 190 40"/>
    <polygon class="a" points="124 207 6 210 11 455 60 457 60 475 125 474 124 207"/>
    <polygon class="a" points="581 519 463 524 465 573 583 572 581 519"/>
    <polygon class="a" points="572 203 445 209 448 253 573 248 572 203"/>
    <polygon class="c" points="620 193 620 200 628 200 627 193 620 193"/>
  </g>
  <g>
    <polygon class="a" points="85 1 1 1 1 17 87 17 85 1"/>
    <polygon class="a" points="693 588 609 590 608 574 696 572 693 588"/>
  </g>
</svg>
