<svg xmlns="http://www.w3.org/2000/svg" width="493" height="397" viewBox="0 0 493 397">
  <defs>
    <style>
      .a {
        fill: none;
        stroke: #000;
        stroke-miterlimit: 10;
      }
    </style>
  </defs>
  <g>
    <polygon class="a" points="3 163 65 163 141 200 171 199 4 120 3 163"/>
    <polygon class="a" points="310 164 397 80 393 48 342 18 293 151 310 164"/>
    <polygon class="a" points="313 1 342 18 293 151 261 141 313 1"/>
    <polygon class="a" points="3 163 1 293 242 293 242 396 470 397 470 381 315 218 337 200 311 172 310 164 293 151 261 141 249 176 247 186 247 200 141 200 65 163 3 163"/>
  </g>
  <g>
    <polygon class="a" points="289 170 289 200 259 200 259 184 260 181 265 165 269 163 289 170"/>
    <polygon class="a" points="470 396 470 381 315 218 337 200 492 365 492 397 470 396"/>
  </g>
</svg>
