<svg xmlns="http://www.w3.org/2000/svg" width="841.92" height="1190.52" viewBox="0 0 841.92 1190.52">
  <defs>
    <style>
      .a {
        fill: none;
        stroke: #000;
        stroke-miterlimit: 10;
      }
    </style>
  </defs>
  <line class="a" x1="841.92" y1="-0.78" x2="831.84" y2="325.5"/>
  <line class="a" x1="831.84" y1="325.5" x2="772.68" y2="565.14"/>
  <line class="a" x1="772.68" y1="565.14" x2="792.84" y2="822.9"/>
  <line class="a" x1="792.84" y1="822.9" x2="635.76" y2="817.02"/>
  <line class="a" x1="635.76" y1="817.02" x2="634.56" y2="1009.14"/>
  <line class="a" x1="634.56" y1="1009.14" x2="586.8" y2="1009.26"/>
  <line class="a" x1="586.8" y1="1009.26" x2="289.98" y2="976.74"/>
  <line class="a" x1="289.98" y1="976.74" x2="289.32" y2="950.94"/>
  <line class="a" x1="289.32" y1="950.94" x2="279.96" y2="950.46"/>
  <line class="a" x1="279.96" y1="950.46" x2="278.4" y2="512.82"/>
  <line class="a" x1="278.4" y1="512.82" x2="288.24" y2="153.9"/>
  <line class="a" x1="288.24" y1="153.9" x2="327" y2="124.02"/>
  <line class="a" x1="327" y1="124.02" x2="388.08" y2="109.86"/>
  <line class="a" x1="388.08" y1="109.86" x2="388.8" y2="47.58"/>
  <line class="a" x1="388.8" y1="47.58" x2="406.32" y2="47.46"/>
  <line class="a" x1="406.32" y1="47.46" x2="409.92" y2="-0.78"/>
</svg>
