<svg xmlns="http://www.w3.org/2000/svg" width="551" height="1017" viewBox="0 0 551 1017">
  <defs>
    <style>
      .a {
        fill: none;
        stroke: #000;
        stroke-miterlimit: 10;
      }
    </style>
  </defs>
  <polygon class="a" points="99 60 100 123 39 138 1 169 1 528 13 966 22 966 24 992 321 1017 369 1015 365 823 523 825 496 568 549 327 551 1 119 11 117 60 99 60"/>
  <polygon class="a" points="450 124 451 205 70 205 70 137 100 137 99 125 450 124"/>
  <polygon class="a" points="451 263 451 388 70 388 70 263 451 263"/>
  <polygon class="a" points="499 496 384 499 382 443 498 439 499 496"/>
  <polygon class="a" points="279 457 282 497 65 509 62 468 279 457"/>
  <polygon class="a" points="316 678 323 838 61 850 53 691 316 678"/>
  <polygon class="a" points="325 898 35 911 38 991 126 988 127 1000 215 995 216 1007 272 1004 331 1001 325 898"/>
</svg>
