<svg xmlns="http://www.w3.org/2000/svg" width="564.52" height="1011.04" viewBox="0 0 564.52 1011.04"><defs><style>.a{fill:none;stroke:#000;stroke-miterlimit:10;}</style></defs><line class="a" x1="132.02" y1="0.5" x2="564.02" y2="0.5"/><line class="a" x1="564.02" y1="0.5" x2="553.94" y2="326.78"/><line class="a" x1="553.94" y1="326.78" x2="494.78" y2="566.42"/><line class="a" x1="494.78" y1="566.42" x2="514.94" y2="824.18"/><line class="a" x1="514.94" y1="824.18" x2="357.86" y2="818.3"/><line class="a" x1="357.86" y1="818.3" x2="356.66" y2="1010.42"/><line class="a" x1="356.66" y1="1010.42" x2="308.9" y2="1010.54"/><line class="a" x1="308.9" y1="1010.54" x2="12.08" y2="978.02"/><line class="a" x1="12.08" y1="978.02" x2="11.42" y2="952.22"/><line class="a" x1="11.42" y1="952.22" x2="2.06" y2="951.74"/><line class="a" x1="2.06" y1="951.74" x2="0.5" y2="514.1"/><line class="a" x1="0.5" y1="514.1" x2="10.34" y2="155.18"/><line class="a" x1="10.34" y1="155.18" x2="49.1" y2="125.3"/><line class="a" x1="49.1" y1="125.3" x2="110.18" y2="111.14"/><line class="a" x1="110.18" y1="111.14" x2="110.9" y2="48.86"/><line class="a" x1="110.9" y1="48.86" x2="128.42" y2="48.74"/><line class="a" x1="128.42" y1="48.74" x2="132.02" y2="0.5"/></svg>